# This file uses centimeters as units for non-parametric coordinates.

mtllib FoxteppeD.mtl
g default
v -2.999986 7.879371 8.126047
v 3.000014 7.879371 8.126047
v -2.999986 1.879371 8.126047
v 3.000014 1.879371 8.126047
v 0.000014 7.879371 8.126047
v 0.000014 1.879371 8.126047
vt 0.000000 1.000000
vt 1.000000 1.000000
vt 0.000000 0.053224
vt 1.000000 0.053224
vt 0.500000 1.000000
vt 0.500000 0.053224
vn 0.000000 0.000000 -1.000000
vn 0.000000 0.000000 -1.000000
vn 0.000000 0.000000 -1.000000
vn 0.000000 0.000000 -1.000000
vn 0.000000 0.000000 -1.000000
vn 0.000000 0.000000 -1.000000
s 1
g pPlane1
usemtl lambert8SG
f 1/1/1 5/5/2 6/6/3 3/3/4
f 5/5/2 2/2/5 4/4/6 6/6/3
g default
v 2.000014 2.000000 6.000000
v 7.000014 2.000000 6.000000
v 2.000014 2.000000 0.000000
v 7.000014 2.000000 0.000000
v -2.000001 1.000000 6.000000
v 1.999999 1.000000 6.000000
v -2.000001 1.000000 0.000000
v 1.999999 1.000000 0.000000
v -6.999960 2.000000 6.000000
v -1.999960 2.000000 6.000000
v -6.999960 2.000000 0.000000
v -1.999960 2.000000 0.000000
v -6.999960 2.000000 10.000000
v 7.000040 2.000000 10.000000
v -6.999960 2.000000 6.000000
v 7.000040 2.000000 6.000000
v -8.000000 1.000000 0.000000
v 8.000000 1.000000 0.000000
v -8.000000 1.000000 -2.000000
v 8.000000 1.000000 -2.000000
v 7.000000 8.000000 10.000000
v 8.000000 8.000000 10.000000
v 7.000000 8.000000 -2.000000
v 8.000000 8.000000 -2.000000
vt 0.000000 6.000000
vt 5.000000 6.000000
vt 0.000000 0.000000
vt 5.000000 0.000000
vt 0.000000 6.000000
vt 4.000000 6.000000
vt 4.000000 0.000000
vt 0.000000 0.000000
vt 0.000000 6.000000
vt 5.000000 6.000000
vt 5.000000 0.000000
vt 0.000000 0.000000
vt 0.000000 3.000000
vt 14.000000 3.000000
vt 14.000000 0.000000
vt 0.000000 0.000000
vt 0.000000 1.000000
vt 16.000000 1.000000
vt 16.000000 0.000000
vt 0.000000 0.000000
vt 0.000000 11.000000
vt 1.000000 11.000000
vt 1.000000 0.000000
vt 0.000000 0.000000
vn 0.000000 1.000000 0.000000
vn 0.000000 1.000000 0.000000
vn 0.000000 1.000000 0.000000
vn 0.000000 1.000000 0.000000
vn 0.000000 1.000000 0.000000
vn 0.000000 1.000000 0.000000
vn 0.000000 1.000000 0.000000
vn 0.000000 1.000000 0.000000
vn 0.000000 1.000000 0.000000
vn 0.000000 1.000000 0.000000
vn 0.000000 1.000000 0.000000
vn 0.000000 1.000000 0.000000
vn 0.000000 1.000000 0.000000
vn 0.000000 1.000000 0.000000
vn 0.000000 1.000000 0.000000
vn 0.000000 1.000000 0.000000
vn 0.000000 1.000000 0.000000
vn 0.000000 1.000000 0.000000
vn 0.000000 1.000000 0.000000
vn 0.000000 1.000000 0.000000
vn 0.000000 1.000000 0.000000
vn 0.000000 1.000000 0.000000
vn 0.000000 1.000000 0.000000
vn 0.000000 1.000000 0.000000
s off
g polySurface1
usemtl lambert6SG
f 7/7/7 8/8/8 10/10/9 9/9/10
f 11/11/11 12/12/12 14/13/13 13/14/14
f 15/15/15 16/16/16 18/17/17 17/18/18
f 19/19/19 20/20/20 22/21/21 21/22/22
f 23/23/23 24/24/24 26/25/25 25/26/26
f 27/27/27 28/28/28 30/29/29 29/30/30
g default
v -8.000000 0.000000 0.000000
v 7.999997 0.000000 0.000000
v -8.000000 1.000000 0.000000
v 7.999997 1.000000 0.000000
v -8.000000 1.000000 -2.000000
v 7.999997 1.000000 -2.000000
v -8.000000 0.000000 -2.000000
v 7.999997 0.000000 -2.000000
v 2.000014 1.000000 6.000000
v 8.000013 1.000000 6.000000
v 2.000014 2.000000 6.000000
v 8.000013 2.000000 6.000000
v 2.000014 2.000000 0.000000
v 8.000013 2.000000 0.000000
v 2.000014 1.000000 0.000000
v 8.000013 1.000000 0.000000
v -6.999960 0.000000 10.000000
v 7.000038 0.000000 10.000000
v -6.999960 2.000000 10.000000
v 7.000038 2.000000 10.000000
v -6.999960 2.000000 6.000000
v 7.000038 2.000000 6.000000
v -6.999960 0.000000 6.000000
v 7.000038 0.000000 6.000000
v -8.000000 1.000000 6.000000
v -2.000001 1.000000 6.000000
v -8.000000 2.000000 6.000000
v -2.000001 2.000000 6.000000
v -8.000000 2.000000 0.000000
v -2.000001 2.000000 0.000000
v -8.000000 1.000000 0.000000
v -2.000001 1.000000 0.000000
v -8.000000 2.000000 10.000000
v -7.000000 2.000000 10.000000
v -8.000000 15.000000 10.000000
v -7.000000 15.000000 10.000000
v -8.000000 15.000000 -2.000000
v -7.000000 15.000000 -2.000000
v -8.000000 2.000000 -2.000000
v -7.000000 2.000000 -2.000000
v 6.999999 2.000000 11.000000
v 6.999999 2.000000 10.000000
v 6.999999 15.000000 11.000000
v 6.999999 15.000000 10.000000
v -7.000001 15.000000 11.000000
v -7.000001 15.000000 9.999999
v -7.000001 2.000000 11.000000
v -7.000001 2.000000 9.999999
v -8.000000 15.000000 0.000000
v 7.999997 15.000000 0.000000
v -8.000000 16.000000 0.000000
v 7.999997 16.000000 0.000000
v -8.000000 16.000000 -2.000000
v 7.999997 16.000000 -2.000000
v -8.000000 15.000000 -2.000000
v 7.999997 15.000000 -2.000000
v 7.000000 9.000000 10.000000
v 8.000000 9.000000 10.000000
v 7.000000 15.000000 10.000000
v 8.000000 15.000000 10.000000
v 7.000000 15.000000 -2.000000
v 8.000000 15.000000 -2.000000
v 7.000000 9.000000 -2.000000
v 8.000000 9.000000 -2.000000
v 7.000000 2.000000 10.000000
v 8.000000 2.000000 10.000000
v 7.000000 8.000000 10.000000
v 8.000000 8.000000 10.000000
v 7.000000 8.000000 -2.000000
v 8.000000 8.000000 -2.000000
v 7.000000 2.000000 -2.000000
v 8.000000 2.000000 -2.000000
vt -1.000000 -1.000000
vt 0.000000 4.000000
vt 16.000000 3.000000
vt -5.000000 0.000000
vt -0.000000 -1.000000
vt 16.000000 -1.000000
vt -0.000000 0.000511
vt 16.000000 -2.000000
vt -0.000000 1.993933
vt 16.000000 1.993933
vt -3.000000 -1.000000
vt -3.000000 0.000000
vt -3.000000 -1.000000
vt -3.000000 0.000000
vt -5.000000 -1.000000
vt 0.000000 3.000000
vt 16.000000 4.000000
vt -1.006063 0.000000
vt 0.000000 -2.000000
vt 16.000000 0.000511
vt 6.000000 4.000000
vt 0.000000 4.000000
vt 0.000000 3.000000
vt 6.000000 3.000000
vt -0.000000 -1.000000
vt 6.000000 -1.000000
vt 6.000000 -2.000000
vt 0.000000 -2.000000
vt -0.000000 0.000511
vt 6.000000 0.000511
vt 6.000000 1.993933
vt -0.000000 1.993933
vt -7.000000 -1.000000
vt -3.000000 -1.000000
vt -3.000000 0.000000
vt -7.000000 0.000000
vt -3.000000 -1.000000
vt 1.000000 -1.000000
vt 1.000000 0.000000
vt -3.000000 0.000000
vt 14.000000 4.000000
vt 0.000000 4.000000
vt 0.000000 3.000000
vt 14.000000 3.000000
vt -0.000000 -1.000000
vt 14.000000 -1.000000
vt 14.000000 -2.000000
vt 0.000000 -2.000000
vt -0.000000 0.000511
vt 14.000000 0.000511
vt 14.000000 1.993933
vt -0.000000 1.993933
vt -7.000000 -1.000000
vt -3.000000 -1.000000
vt -3.000000 0.000000
vt -7.000000 0.000000
vt -3.000000 -1.000000
vt 1.000000 -1.000000
vt 1.000000 0.000000
vt -3.000000 0.000000
vt 6.000000 4.000000
vt 0.000000 4.000000
vt 0.000000 3.000000
vt 6.000000 3.000000
vt -0.000000 -1.000000
vt 6.000000 -1.000000
vt 6.000000 -2.000000
vt 0.000000 -2.000000
vt -0.000000 0.000511
vt 6.000000 0.000511
vt 6.000000 1.993933
vt -0.000000 1.993933
vt -7.000000 -1.000000
vt -3.000000 -1.000000
vt -3.000000 0.000000
vt -7.000000 0.000000
vt -3.000000 -1.000000
vt 1.000000 -1.000000
vt 1.000000 0.000000
vt -3.000000 0.000000
vt 1.000000 15.000000
vt 0.000000 15.000000
vt 0.000000 3.000000
vt 1.000000 3.000000
vt -0.000000 -1.000000
vt 1.000000 -1.000000
vt 1.000000 -13.000000
vt 0.000000 -13.000000
vt -0.000000 0.000511
vt 1.000000 0.000511
vt 1.000000 1.993933
vt -0.000000 1.993933
vt -15.000000 -1.000000
vt -3.000000 -1.000000
vt -3.000000 12.000000
vt -15.000000 12.000000
vt -3.000000 -1.000000
vt 13.000000 -1.000000
vt 13.000000 12.000000
vt -3.000000 12.000000
vt 1.000000 15.000000
vt 0.000000 15.000000
vt 0.000000 3.000000
vt 1.000000 3.000000
vt -0.000000 -1.000000
vt 1.000000 -1.000000
vt 1.000000 -13.000000
vt 0.000000 -13.000000
vt -0.000000 0.000511
vt 1.000000 0.000511
vt 1.000000 1.993933
vt -0.000000 1.993933
vt -17.000000 -1.000000
vt -3.000000 -1.000000
vt -3.000000 12.000000
vt -17.000000 12.000000
vt -3.000000 -1.000000
vt 15.000000 -1.000000
vt 15.000000 12.000000
vt -3.000000 12.000000
vt 16.000000 4.000000
vt 0.000000 4.000000
vt 0.000000 3.000000
vt 16.000000 3.000000
vt -0.000000 -1.000000
vt 16.000000 -1.000000
vt 16.000000 -2.000000
vt 0.000000 -2.000000
vt -0.000000 0.000511
vt 16.000000 0.000511
vt 16.000000 1.993933
vt -0.000000 1.993933
vt -5.000000 -1.000000
vt -3.000000 -1.000000
vt -3.000000 0.000000
vt -5.000000 0.000000
vt -3.000000 -1.000000
vt -1.000000 -1.000000
vt -1.006063 0.000000
vt -3.000000 0.000000
vt 1.000000 8.000000
vt 0.000000 8.000000
vt 0.000000 3.000000
vt 1.000000 3.000000
vt -0.000000 -1.000000
vt 1.000000 -1.000000
vt 1.000000 -6.000000
vt 0.000000 -6.000000
vt -0.000000 0.000511
vt 1.000000 0.000511
vt 1.000000 1.993933
vt -0.000000 1.993933
vt -15.000000 -1.000000
vt -3.000000 -1.000000
vt -3.000000 4.000000
vt -15.000000 4.000000
vt -3.000000 -1.000000
vt 13.000000 -1.000000
vt 13.000000 4.000000
vt -3.000000 4.000000
vt 1.000000 9.000000
vt 0.000000 9.000000
vt 0.000000 3.000000
vt 1.000000 3.000000
vt -0.000000 -1.000000
vt 1.000000 -1.000000
vt 1.000000 -7.000000
vt 0.000000 -7.000000
vt -0.000000 0.000511
vt 1.000000 0.000511
vt 1.000000 1.993933
vt -0.000000 1.993933
vt -15.000000 -1.000000
vt -3.000000 -1.000000
vt -3.000000 5.000000
vt -15.000000 5.000000
vt -3.000000 -1.000000
vt 13.000000 -1.000000
vt 13.000000 5.000000
vt -3.000000 5.000000
vn 0.000000 0.000000 1.000000
vn 0.000000 0.000000 1.000000
vn 0.000000 0.000000 1.000000
vn 0.000000 0.000000 1.000000
vn 0.000000 0.000000 -1.000000
vn 0.000000 0.000000 -1.000000
vn 0.000000 0.000000 -1.000000
vn 0.000000 0.000000 -1.000000
vn 0.000000 -1.000000 0.000000
vn 0.000000 -1.000000 0.000000
vn 0.000000 -1.000000 0.000000
vn 0.000000 -1.000000 0.000000
vn 1.000000 0.000000 0.000000
vn 1.000000 0.000000 0.000000
vn 1.000000 0.000000 0.000000
vn 1.000000 0.000000 0.000000
vn -1.000000 0.000000 0.000000
vn -1.000000 0.000000 0.000000
vn -1.000000 0.000000 0.000000
vn -1.000000 0.000000 0.000000
vn 0.000000 0.000000 1.000000
vn 0.000000 0.000000 1.000000
vn 0.000000 0.000000 1.000000
vn 0.000000 0.000000 1.000000
vn 0.000000 0.000000 -1.000000
vn 0.000000 0.000000 -1.000000
vn 0.000000 0.000000 -1.000000
vn 0.000000 0.000000 -1.000000
vn 0.000000 -1.000000 0.000000
vn 0.000000 -1.000000 0.000000
vn 0.000000 -1.000000 0.000000
vn 0.000000 -1.000000 0.000000
vn 1.000000 0.000000 0.000000
vn 1.000000 0.000000 0.000000
vn 1.000000 0.000000 0.000000
vn 1.000000 0.000000 0.000000
vn -1.000000 0.000000 0.000000
vn -1.000000 0.000000 0.000000
vn -1.000000 0.000000 0.000000
vn -1.000000 0.000000 0.000000
vn 0.000000 0.000000 1.000000
vn 0.000000 0.000000 1.000000
vn 0.000000 0.000000 1.000000
vn 0.000000 0.000000 1.000000
vn 0.000000 0.000000 -1.000000
vn 0.000000 0.000000 -1.000000
vn 0.000000 0.000000 -1.000000
vn 0.000000 0.000000 -1.000000
vn 0.000000 -1.000000 0.000000
vn 0.000000 -1.000000 0.000000
vn 0.000000 -1.000000 0.000000
vn 0.000000 -1.000000 0.000000
vn 1.000000 0.000000 0.000000
vn 1.000000 0.000000 0.000000
vn 1.000000 0.000000 0.000000
vn 1.000000 0.000000 0.000000
vn -1.000000 0.000000 0.000000
vn -1.000000 0.000000 0.000000
vn -1.000000 0.000000 0.000000
vn -1.000000 0.000000 0.000000
vn 0.000000 0.000000 1.000000
vn 0.000000 0.000000 1.000000
vn 0.000000 0.000000 1.000000
vn 0.000000 0.000000 1.000000
vn 0.000000 0.000000 -1.000000
vn 0.000000 0.000000 -1.000000
vn 0.000000 0.000000 -1.000000
vn 0.000000 0.000000 -1.000000
vn 0.000000 -1.000000 0.000000
vn 0.000000 -1.000000 0.000000
vn 0.000000 -1.000000 0.000000
vn 0.000000 -1.000000 0.000000
vn 1.000000 0.000000 0.000000
vn 1.000000 0.000000 0.000000
vn 1.000000 0.000000 0.000000
vn 1.000000 0.000000 0.000000
vn -1.000000 0.000000 0.000000
vn -1.000000 0.000000 0.000000
vn -1.000000 0.000000 0.000000
vn -1.000000 0.000000 0.000000
vn 0.000000 0.000000 1.000000
vn 0.000000 0.000000 1.000000
vn 0.000000 0.000000 1.000000
vn 0.000000 0.000000 1.000000
vn 0.000000 0.000000 -1.000000
vn 0.000000 0.000000 -1.000000
vn 0.000000 0.000000 -1.000000
vn 0.000000 0.000000 -1.000000
vn 0.000000 -1.000000 0.000000
vn 0.000000 -1.000000 0.000000
vn 0.000000 -1.000000 0.000000
vn 0.000000 -1.000000 0.000000
vn 1.000000 0.000000 0.000000
vn 1.000000 0.000000 0.000000
vn 1.000000 0.000000 0.000000
vn 1.000000 0.000000 0.000000
vn -1.000000 0.000000 0.000000
vn -1.000000 0.000000 0.000000
vn -1.000000 0.000000 0.000000
vn -1.000000 0.000000 0.000000
vn 1.000000 0.000000 0.000000
vn 1.000000 0.000000 0.000000
vn 1.000000 0.000000 0.000000
vn 1.000000 0.000000 0.000000
vn -1.000000 0.000000 0.000000
vn -1.000000 0.000000 0.000000
vn -1.000000 0.000000 0.000000
vn -1.000000 0.000000 0.000000
vn 0.000000 -1.000000 0.000000
vn 0.000000 -1.000000 0.000000
vn 0.000000 -1.000000 0.000000
vn 0.000000 -1.000000 0.000000
vn 0.000000 0.000000 -1.000000
vn 0.000000 0.000000 -1.000000
vn 0.000000 0.000000 -1.000000
vn 0.000000 0.000000 -1.000000
vn 0.000000 0.000000 1.000000
vn 0.000000 0.000000 1.000000
vn 0.000000 0.000000 1.000000
vn 0.000000 0.000000 1.000000
vn 0.000000 0.000000 1.000000
vn 0.000000 0.000000 1.000000
vn 0.000000 0.000000 1.000000
vn 0.000000 0.000000 1.000000
vn 0.000000 0.000000 -1.000000
vn 0.000000 0.000000 -1.000000
vn 0.000000 0.000000 -1.000000
vn 0.000000 0.000000 -1.000000
vn 0.000000 -1.000000 0.000000
vn 0.000000 -1.000000 0.000000
vn 0.000000 -1.000000 0.000000
vn 0.000000 -1.000000 0.000000
vn 1.000000 0.000000 0.000000
vn 1.000000 0.000000 0.000000
vn 1.000000 0.000000 0.000000
vn 1.000000 0.000000 0.000000
vn -1.000000 0.000000 0.000000
vn -1.000000 0.000000 0.000000
vn -1.000000 0.000000 0.000000
vn -1.000000 0.000000 0.000000
vn 0.000000 0.000000 1.000000
vn 0.000000 0.000000 1.000000
vn 0.000000 0.000000 1.000000
vn 0.000000 0.000000 1.000000
vn 0.000000 0.000000 -1.000000
vn 0.000000 0.000000 -1.000000
vn 0.000000 0.000000 -1.000000
vn 0.000000 0.000000 -1.000000
vn 0.000000 -1.000000 0.000000
vn 0.000000 -1.000000 0.000000
vn 0.000000 -1.000000 0.000000
vn 0.000000 -1.000000 0.000000
vn 1.000000 0.000000 0.000000
vn 1.000000 0.000000 0.000000
vn 1.000000 0.000000 0.000000
vn 1.000000 0.000000 0.000000
vn -1.000000 0.000000 0.000000
vn -1.000000 0.000000 0.000000
vn -1.000000 0.000000 0.000000
vn -1.000000 0.000000 0.000000
vn 0.000000 0.000000 1.000000
vn 0.000000 0.000000 1.000000
vn 0.000000 0.000000 1.000000
vn 0.000000 0.000000 1.000000
vn 0.000000 0.000000 -1.000000
vn 0.000000 0.000000 -1.000000
vn 0.000000 0.000000 -1.000000
vn 0.000000 0.000000 -1.000000
vn 0.000000 -1.000000 0.000000
vn 0.000000 -1.000000 0.000000
vn 0.000000 -1.000000 0.000000
vn 0.000000 -1.000000 0.000000
vn 1.000000 0.000000 0.000000
vn 1.000000 0.000000 0.000000
vn 1.000000 0.000000 0.000000
vn 1.000000 0.000000 0.000000
vn -1.000000 0.000000 0.000000
vn -1.000000 0.000000 0.000000
vn -1.000000 0.000000 0.000000
vn -1.000000 0.000000 0.000000
s off
g polySurface2
usemtl lambert7SG
f 31/47/31 32/32/32 34/46/33 33/33/34
f 35/35/35 36/36/36 38/38/37 37/49/38
f 37/37/39 38/50/40 32/40/41 31/39/42
f 32/45/43 38/41/44 36/42/45 34/34/46
f 37/43/47 31/31/48 33/48/49 35/44/50
f 39/51/51 40/52/52 42/53/53 41/54/54
f 43/55/55 44/56/56 46/57/57 45/58/58
f 45/59/59 46/60/60 40/61/61 39/62/62
f 40/63/63 46/64/64 44/65/65 42/66/66
f 45/67/67 39/68/68 41/69/69 43/70/70
f 47/71/71 48/72/72 50/73/73 49/74/74
f 51/75/75 52/76/76 54/77/77 53/78/78
f 53/79/79 54/80/80 48/81/81 47/82/82
f 48/83/83 54/84/84 52/85/85 50/86/86
f 53/87/87 47/88/88 49/89/89 51/90/90
f 55/91/91 56/92/92 58/93/93 57/94/94
f 59/95/95 60/96/96 62/97/97 61/98/98
f 61/99/99 62/100/100 56/101/101 55/102/102
f 56/103/103 62/104/104 60/105/105 58/106/106
f 61/107/107 55/108/108 57/109/109 59/110/110
f 63/111/111 64/112/112 66/113/113 65/114/114
f 67/115/115 68/116/116 70/117/117 69/118/118
f 69/119/119 70/120/120 64/121/121 63/122/122
f 64/123/123 70/124/124 68/125/125 66/126/126
f 69/127/127 63/128/128 65/129/129 67/130/130
f 71/131/131 72/132/132 74/133/133 73/134/134
f 75/135/135 76/136/136 78/137/137 77/138/138
f 77/139/139 78/140/140 72/141/141 71/142/142
f 72/143/143 78/144/144 76/145/145 74/146/146
f 77/147/147 71/148/148 73/149/149 75/150/150
f 79/151/151 80/152/152 82/153/153 81/154/154
f 83/155/155 84/156/156 86/157/157 85/158/158
f 85/159/159 86/160/160 80/161/161 79/162/162
f 80/163/163 86/164/164 84/165/165 82/166/166
f 85/167/167 79/168/168 81/169/169 83/170/170
f 87/171/171 88/172/172 90/173/173 89/174/174
f 91/175/175 92/176/176 94/177/177 93/178/178
f 93/179/179 94/180/180 88/181/181 87/182/182
f 88/183/183 94/184/184 92/185/185 90/186/186
f 93/187/187 87/188/188 89/189/189 91/190/190
f 95/191/191 96/192/192 98/193/193 97/194/194
f 99/195/195 100/196/196 102/197/197 101/198/198
f 101/199/199 102/200/200 96/201/201 95/202/202
f 96/203/203 102/204/204 100/205/205 98/206/206
f 101/207/207 95/208/208 97/209/209 99/210/210
